<svg xmlns="http://www.w3.org/2000/svg" width="500" height="500" viewBox="0 0 500 500" version="1.1"><path d="M 267.013 103.250 C 267.020 103.388, 267.958 106.425, 269.098 110 C 270.238 113.575, 271.822 118.975, 272.618 122 C 273.414 125.025, 274.306 128.287, 274.600 129.250 C 275.103 130.895, 272.890 131, 237.717 131 L 200.299 131 174.400 150.419 C 160.155 161.100, 144.253 173.138, 139.063 177.169 L 129.625 184.500 125.697 195 C 117.409 217.155, 107.336 246.208, 105.952 251.948 C 105.332 254.522, 105.541 256.107, 106.776 258.198 C 107.686 259.739, 108.730 261, 109.094 261 C 109.459 261, 110.317 262.350, 111 264 C 111.683 265.650, 112.638 267, 113.121 267 C 113.605 267, 114 267.449, 114 267.999 C 114 268.548, 123.049 282.161, 134.109 298.249 C 145.169 314.337, 154.442 328.063, 154.716 328.750 C 154.990 329.438, 155.598 330, 156.068 330 C 156.538 330, 160.341 322.913, 164.519 314.250 C 171.630 299.506, 172.026 298.340, 170.716 296 C 163.497 283.101, 148.017 256.415, 145.288 252.162 C 143.404 249.226, 141.804 246.054, 141.734 245.113 C 141.663 244.172, 144.857 238.667, 148.833 232.880 C 154.391 224.789, 158.749 219.947, 167.693 211.929 C 174.091 206.193, 179.815 201.048, 180.413 200.496 C 181.011 199.944, 185.324 196.119, 189.998 191.996 C 194.672 187.873, 199.172 183.806, 199.998 182.958 C 200.824 182.110, 204.847 178.560, 208.937 175.069 L 216.373 168.723 225.937 169.356 C 231.197 169.705, 241.511 169.992, 248.857 169.995 C 260.502 169.999, 262.138 170.198, 261.620 171.548 C 261.293 172.400, 255.150 181.901, 247.968 192.662 C 240.786 203.423, 235.042 212.622, 235.205 213.103 C 235.367 213.585, 239.100 211.647, 243.500 208.797 C 247.900 205.948, 260.536 197.740, 271.579 190.558 C 294.032 175.956, 293.767 176.126, 300 172.384 C 306.641 168.398, 329 153.817, 329 153.474 C 329 153.311, 317.906 144.025, 304.347 132.839 C 290.788 121.652, 279.200 112.041, 278.597 111.479 C 273.620 106.849, 266.954 102.113, 267.013 103.250 M 343.661 177.143 C 342.823 178.439, 338.543 185.781, 334.150 193.457 C 325.031 209.391, 325.093 206.979, 333.463 220 C 335.761 223.575, 339.379 229.650, 341.502 233.500 C 343.625 237.350, 347.719 244.392, 350.599 249.150 L 355.836 257.800 342.599 274.650 C 329.044 291.905, 322.685 297.918, 298.312 316.530 C 294.359 319.549, 290.534 322.577, 289.812 323.259 C 289.090 323.942, 286.843 325.738, 284.817 327.250 C 281.148 329.989, 281.073 330, 265.317 329.912 C 256.618 329.864, 247.303 329.527, 244.617 329.162 L 239.735 328.500 254.367 306.741 C 267.922 286.584, 270.426 282.293, 268.120 283.167 C 265.256 284.252, 172.060 346.686, 172.033 347.538 C 171.996 348.694, 173.650 350.113, 196.500 368.532 C 205.300 375.625, 217.158 385.187, 222.851 389.780 C 228.544 394.374, 233.421 397.912, 233.689 397.644 C 233.957 397.376, 232.831 392.734, 231.188 387.329 C 229.544 381.923, 227.980 376.600, 227.713 375.500 C 227.446 374.400, 226.903 372.712, 226.506 371.750 C 225.828 370.103, 227.866 370, 261.233 370 L 296.680 370 310.229 360.750 C 334.857 343.938, 347.431 335.132, 358.655 326.841 C 361.720 324.576, 363.659 321.900, 366.049 316.636 C 367.831 312.711, 371.303 305.225, 373.765 300 C 376.227 294.775, 379.586 287.575, 381.229 284 C 387.252 270.902, 394.127 256.429, 395.598 253.754 C 397.024 251.161, 396.953 250.800, 394.310 247.254 C 392.771 245.189, 391.226 243.275, 390.878 243 C 389.817 242.163, 352.417 186.031, 348.658 179.634 C 345.855 174.864, 345.311 174.593, 343.661 177.143" stroke="none" fill="#7e51e2" fill-rule="evenodd"/></svg>